<?xml version='1.0' encoding='utf-8'?>
<svg xmlns="http://www.w3.org/2000/svg" enable-background="new 0 0 1592 1257" version="1.1" viewBox="0 0 1592 1257">
	<path d="m1471.7 111.42c-20.542 0.178-40.931 1.669-61.196 5.182-23.482 4.071-46.852 8.55-69.522 16.098-11.093 3.693-13.355 14.535-21.526 21.85-3.723 3.333-5.967 7.588-7.423 12.237-4.372 13.965-7.899 28.184-13.88 41.645-2.27 5.11-3.247 10.809-4.664 16.278-1.221 4.712-2.895 9.224-5.417 13.38-3.471 5.72-6.436 11.685-8.422 18.065-2.042 6.556-4.576 12.775-8.446 18.548-5.463 8.149-7.727 17.633-10.063 27.024-0.562 2.26-0.798 4.667-1.738 6.758-7.488 16.65-11.924 34.16-15.669 51.963-4.673 22.212-2.364 47.026-3.975 69.805-1.49 21.066-3.839 42.074-7.055 62.947-2.746 17.818-8.704 34.68-10.538 52.828-0.392 3.818-1.118 7.578-2.21 11.265-5.773 19.483-12.446 38.695-18.197 58.165-17.039 57.686-56.167 103.46-80.776 157.32-3.753 8.213-8.375 15.829-13.779 23.109-4.534 6.108-8.419 12.778-9.585 20.655-0.508 3.434-1.569 6.842-2.801 10.103-3.098 8.199-1.087 14.879 5.188 20.767 11.568 10.854 14.765 24.794 14.308 40.007-0.107 3.57-1.747 6.358-4.175 8.796-9.345 9.378-15.672 20.28-18.764 33.35-1.957 8.271-6.591 15.558-12.521 21.856-2.836 3.011-6.431 4.097-10.337 4.328-4.157 0.246-7.821 1.216-10.529 4.75-0.863 1.126-2.336 1.865-3.649 2.553-4.814 2.526-7.746 0.936-7.96-4.547-0.103-2.655-0.963-4.697-2.456-6.841-4.148-5.952-5.156-12.689-3.16-19.558 1.622-5.583 3.908-11.043 7.415-15.755 3.487-4.685 6.443-9.716 9.796-14.456 5.986-8.465 10.125-17.805 12.406-27.667 2.329-10.069-0.405-24.71-13.025-29.251-3.599-1.295-7.127-2.678-10.851-3.656-3.921-1.03-7.625-0.567-10.389 1.924-9.176 8.27-20.75 13.31-29.403 22.264-4.129 4.273-7.469 8.62-8.302 14.895-0.783 5.901-2.478 11.737-5.806 16.902-2.829 4.391-4.06 4.891-9.083 3.38-4.349-1.308-6.181-0.827-7.888 3.423-1.902 4.737-3.884 9.582-3.546 14.906 0.117 1.836 0.181 3.67-0.367 5.456-1.36 4.432-1.175 8.944-0.252 13.365 0.993 4.756 0.16 9.172-1.072 13.76-2.414 8.992-9.314 11.975-17.29 13.744-1.511 0.335-3-0.048-4.333-0.826-2.697-1.577-2.687-3.717-5e-3 -5.312 0.143-0.085 0.296-0.198 0.45-0.209 8.345-0.596 9.132-7.475 11.032-13.361 1.053-3.261-0.372-6.424-3.426-8.637-2.88-2.086-4.854-0.407-7.081 1.278-2.744 2.076-4.393 4.605-5.74 7.844-2.219 5.336-4.836 10.642-9.608 14.396-4.692 3.691-7.177 9.13-10.642 13.777-4.201 5.632-4.539 6.038-11.1 4.524-6.026-1.39-11.585-1.02-16.073 3.899-1.341 1.47-3.179 1.614-5.024 1.855-7.575 0.991-13.694 4.157-18.479 10.522-9.379 12.475-18.778 24.927-27.949 37.559-27.416 37.759-59.459 71.937-92.736 104.55-16.651 16.317-33.652 32.281-50.785 48.09-6.7 6.182-10.597 10.276-19.571 11.37-7.663 0.934-18.071-0.498-16.803-10.699 0.757-6.091 2.224-12.094 6.272-17.122 2.975-3.696 4.222-7.93 4.852-12.786 1.326-10.216 4.177-20.146 7.43-29.972 2.763-8.348 4.908-16.922 6.902-25.495 1.297-5.572-0.822-7.069-6.263-5.185-8.169 2.829-14.592 7.594-20.757 13.962-13.538 13.985-24.501 30.208-38.868 43.449-4.076 3.756-6.675 9.097-10.046 13.641-4.569 6.157-9.473 12.043-14.698 17.66-6.553 7.044-12.339 14.833-20.255 20.548-2.307 1.666-4.45 4.011-7.533 2.148-3.006-1.816-4.083-4.703-3.328-8.198 1.549-7.177 3.818-13.997 8.321-20.006 2.277-3.038 4.145-6.471 5.69-9.952 3.609-8.132 8.485-15.41 14.009-22.321 7.422-9.286 11.343-20.846 18.759-30.022 10.483-12.97 18.979-27.306 29.09-40.519 4.936-6.451 9.403-13.396 13.103-20.619 3.439-6.713 7.895-12.717 11.591-19.217 17.114-30.101 30.83-66.992 44.271-99.573 6.733-16.321 13.156-32.743 19.183-49.355 4.12-11.355 8.765-22.623 13.587-33.767 7.938-18.344 14.47-37.269 22.626-55.527 4.075-9.122 9.714-17.481 13.183-26.91 3.513-9.548 6.279-19.249 7.752-29.37 1.173-8.058 3.084-16.016 4.879-23.971 0.697-3.09 1.761-6.055 1.228-9.316-0.152-0.931 0-2.126 0.482-2.912 3.468-5.656 3.862-12.377 6.474-18.318 3.549-8.071 3.074-16.975 5.159-25.37 0.852-3.429-1.774-6.355-5.839-6.659-5.997-0.448-11.643-2.589-17.718-2.774-8.799-0.269-15.678-5.178-21.878-10.949-5.703-5.308-11.982-9.21-19.725-11.081-11.617-2.807-20.046-10.048-25.924-20.416-2.545-4.489-5.303-8.866-8.16-13.164-1.863-2.803-4.328-5.077-7.599-6.25-7.601-2.724-14.431-6.782-20.741-11.79-3.342-2.652-7.126-3.398-11.303-2.293-18.988 5.023-36.096-0.482-52.499-9.573-3.232-1.791-6.211-4.288-7.513-7.792-1.84-4.951-5.647-6.711-10.251-7.626-7.673-1.524-15.342-3.068-23.034-4.486-9.163-1.69-17.732-4.395-24.225-11.729-1.794-2.026-3.526-3.937-4.496-6.479-1.273-3.339-3.604-5.288-7.128-6.351-4.819-1.454-9.733-2.601-14.666-2.951-7.88-0.559-15.426-2.129-22.962-4.452-6.008-1.852-10.785-5.144-14.842-9.681-2.813-3.146-2.56-4.385 0.876-6.664 1.221-0.81 2.991-1.243 2.959-3.05-0.039-2.191-1.922-3.072-3.587-3.724-7.176-2.811-14.691-4.052-22.302-5.229-10.307-1.594-20.833-3.142-29.244-10.32-1.257-1.072-2.519-2.221-3.462-3.558-1.413-2.001-1.381-3.77 0.859-5.569 3.793-3.047 3.56-5.622-0.751-7.868-3.959-2.064-8.002-3.885-12.486-4.928-9.228-2.146-18.537-4.131-27.406-7.603-2.941-1.151-5.882-2.32-8.26-4.56-2.492-2.348-3.974-4.867-2.529-8.411 1.326-3.253 0.052-5.746-2.439-7.952-7.202-6.377-16.098-9.503-25.182-9.534-25.421-0.084-47.383-8.684-67.631-23.522-8.366-6.131-16.282-12.6-23.571-19.907-2.757-2.764-4.93-6.021-5.764-9.798-1.356-6.142-5.47-8.706-11.138-8.748-10.93-0.082-20.917-3.579-30.899-7.458-8.641-3.358-15.854-9.101-23.765-13.672-9.012-5.207-15.005-13.343-20.829-21.617-1.894-2.691-2.133-5.865-2.366-9.064-0.452-6.228-2.199-8.029-8.14-7.22-18.624 2.538-36.387-2.424-54.332-5.834-3.521-0.669-6.303-2.709-8.813-5.35-4.465-4.7-9.088-9.259-14.698-12.682-2.844-1.735-5.379-3.911-7.837-6.18-3.356-3.097-7.311-4.244-11.934-3.836-6.962 0.614-13.907 1.542-20.921 1.513-3.375-0.014-6.677-0.43-9.758-1.808-3.403-1.522-4.218-3.998-2.503-7.338 0.601-1.171 1.34-2.378 2.31-3.237 7.869-6.968 16.137-13.587 25.194-18.775 8.468-4.851 17.997-7.728 27.38-10.697 11.01-3.484 22.535-4.46 33.638-7.402 12.731-3.374 25.865-4.487 38.79-6.716 17.653-3.045 35.549-4.154 53.557-4.19 13.827-0.028 27.625 0.637 41.422 0.956 12.732 0.294 25.525 0.287 38.253 2.514 8.114 1.42 16.581 1.155 24.821 2.448 12.983 2.037 26.081 3.232 38.983 5.924 10.26 2.141 20.713 3.344 31.032 5.228 15.873 2.899 31.683 6.206 47.691 8.243 10.725 1.365 21.084 5.049 32.028 4.892 13.612 5.807 28.85 3.672 42.732 9.156 7.508 2.965 16.037 4.121 24.386 4.824 11.065 0.931 21.008 6.29 31.695 8.678 5.742 1.283 10.494 4.841 16.426 5.661 11.41 1.578 22.975 1.171 34.331 2.923 12.299 1.898 24.84 2.665 36.66 7.062 5.318 1.979 10.727 3.499 16.316 4.606 47.356 9.38 95.826 22.99 138.72 45.391 5.219 2.725 10.659 4.821 16.513 5.449 5.782 0.62 10.553 3.948 16.011 5.467 9.933 2.764 19.759 5.838 29.15 10.304 11.958 5.687 23.035 12.738 33.595 20.599 11.683 8.696 24.627 10.343 38.449 7.783 8.69-1.609 14.579-7.806 20.583-13.517 6.062-5.766 12.583-10.854 19.367-15.725 7.256-5.21 13.053-11.844 16.482-20.285 1.003-2.469 1.932-4.979 3.1-7.369 7.561-15.463 11.07-31.956 12.561-48.968 0.395-4.511 1.312-8.856 3.124-13.053 2.281-5.282 2.987-10.913 2.822-16.631-0.192-6.65 1.241-12.852 4.415-18.725 1.094-2.024 1.982-4.304 2.327-6.564 2.171-14.241 8.458-27.393 11.047-41.455 1.921-10.438 5.871-20.416 6.191-31.259 0.174-5.886 2.887-11.549 5.223-17.069 0.581-1.373 1.601-2.733 1.656-4.129 0.453-11.394 7.115-20.151 12.609-29.281 4.623-7.682 9.936-15.029 18.922-18.447 4.314-1.64 7.296-5.152 10.797-7.945 6.891-5.498 15.166-8.177 23.262-11.271 10.581-4.044 21.53-5.443 32.767-5.985 12.305-0.593 24.586-2.247 36.902-0.605 9.211 1.228 18.433 2.194 27.63 3.825 11.984 2.124 23.822 4.783 35.528 7.824 20.812 5.405 41.539 11.391 58.353 25.957 0.755 0.654 1.74 1.138 2.283 1.93 9.221 13.471 23.1 13.027 37.036 12.511 19.314-0.715 38.532-2.807 57.822-3.942 32.248-1.897 64.506-2.719 96.796-3.159 11.417-0.156 22.591 0.823 33.73 2.996 3.127 0.61 6.148 1.616 8.954 3.084 2.915 1.525 3.195 3.883 0.352 5.207-12.48 5.809-24.533 12.987-39.014 12.833-10.657-0.121-21.321-0.03-31.984-0.03z"/>
</svg>